<?xml version="1.0" encoding="UTF-8"?>
<svg id="uuid-0e936d45-ce6b-41ba-a703-02c0a341fee9" data-name="Layer 2" xmlns="http://www.w3.org/2000/svg" viewBox="0 0 390.8 238.02">
  <defs>
    <style>
      .uuid-1e1aa39a-2c7c-4784-bb85-495191f13f14 {
        fill: #203163;
      }

      .uuid-ad72b91c-7470-4908-8632-0708b7850658 {
        fill: #f58320;
      }
    </style>
  </defs>
  <g id="uuid-d3ac363c-a6a5-4255-ba7d-c8db162e34c9" data-name="Layer 2">
    <g>
      <g>
        <path class="uuid-ad72b91c-7470-4908-8632-0708b7850658" d="M111.37,91.73c1.01.16,2.02.32,3.03.53,15.35,2.96,26.13,9.92,28.84,18.58,1.33,4.43,1.22,11.45-7.12,19.74-18.38,18.26-45.73,21.01-54.71,21.9-8.92.84-16.89,1.27-24.01,1.27-2.34,0-4.62-.05-6.8-.11-.37,2.22-.69,4.43-.96,6.65-.21,1.32-1.33,2.27-2.66,2.27h-.32c-1.49-.16-2.5-1.48-2.34-2.96.27-2.11.58-4.17.9-6.28-34.42-2.38-44.19-14.41-44.72-15.09-.85-1.16-.64-2.8.53-3.69,1.17-.9,2.82-.69,3.66.47.21.21,9.45,10.93,41.43,13.04C58.41,80.91,102.18,13.46,102.66,12.77c.8-1.21,2.44-1.58,3.66-.79,1.27.79,1.59,2.48.8,3.69-.43.69-43.4,66.76-55.61,132.63,8.34.32,18.06,0,29.37-1.11,8.5-.84,34.47-3.43,51.52-20.37,5.15-5.12,7.12-9.98,5.74-14.41-2.07-6.7-11.53-12.46-24.75-14.99-10.99-2.11-21.3-1.9-27.14-1.53-1.75.16-3.45.32-5.21.47-1.38.16-2.71-.9-2.87-2.32-.16-1.42.8-2.69,2.23-2.9.27-.05,2.34-.32,5.74-.58,61.51-6.6,83.55-33.04,83.55-54.2,0-8.66-10.09-31.09-56.09-31.09S18.31,37.95,18.31,70.09c0,28.08,17.69,35.36,25.34,37.16,1.22.32,2.5,1.58,2.39,2.85-.05,1.32-1.12,2.32-2.39,2.48-.43.05-.85,0-1.27-.16-7.33-1.79-29.37-9.92-29.37-42.33C13,34.73,62.82,0,113.6,0s61.4,26.23,61.4,36.36c0,20.11-17.26,44.49-63.63,55.36Z"/>
        <path class="uuid-ad72b91c-7470-4908-8632-0708b7850658" d="M370.31,84.02c-.96-1.06-2.66-1.16-3.72-.21-5.15,4.54-10.41,8.97-15.83,13.09-8.82,6.44-26.93,19.95-15.99-2.01,1.65-4.33,6.53-11.19,1.59-15.15-3.24-2.16-7.44-.11-10.09,1.32-6.96,4.06-12.54,9.39-18.27,14.46.48-1.58.85-3.17,1.22-4.8.32-2.27,1.22-4.22-.32-6.6-.05-.21-1.01-1-1.7-1.11-.8-.16-1.49,0-1.75.11-1.33.53-1.54.95-2.02,1.32-8.45,9.61-18.22,19.11-31.28,21.22-5.15,1.06-10.14.37-8.98-5.33.11-.58.82-1.5,2.56-2,2.32-.66,16.88-7.08,17.2-15.84-.27-3.11-3.82-5.22-6.59-4.91-4.46.16-7.54,3.33-10.46,5.75-2.71,2.16-5.42,4.33-7.97,6.6-10.25,9.03-20.5,18.63-32.03,24.75-2.76,1.37-6.06,2.32-7.12,1.16-1.54-1-2.44-4.38-2.71-7.39-.37-7.28.43-14.62,1.91-21.85,7.28-5.17,13.81-11.51,19.49-17.84,8.34-8.34,41.06-55.36,26.13-63.65-6.06-1.16-10.57,4.86-14.29,8.23-14.45,15.41-24.8,34.25-31.34,54.2-1.59,5.17-3.29,10.45-4.62,15.89-7.97,5.44-16.73,9.24-26.29,9.76-.05-3.43-1.17-6.86-3.24-9.82,2.34-.84,2.44-4.8-.64-5.17-13.97-2.32-28.36,12.83-22.52,26.39,5.21,12.19,20.61,5.96,24.65-3.64.37-.79.74-1.64.96-2.43,9.19-.26,17.69-3.33,25.5-7.92-1.43,7.97-1.81,16.04.16,24.01,5.74,17.21,29.69-1.85,46.42-16.89-4.04,16.68,14.34,15.15,25.28,9.82,7.81-3.48,14.18-9.13,19.81-15.31-.96,3.43-2.39,7.55-3.08,9.5h.05l-.05.05c-.05.11-.16.21-.32.42-.53-.42-1.43,4.38,3.66,3.59.21-.16.37-.26.58-.48,0,0,.05,0,.05-.05,8.45-6.12,15.78-14.51,24.54-19.63,1.54-.79,2.97-1.53,4.25-1.53-.8,7.49-14.71,23.91-1.49,27.97,8.98.11,15.62-6.39,22.36-11.03,5.58-4.22,10.89-8.71,16.09-13.3,1.12-.95,1.22-2.64.21-3.75ZM230.56,50.35c7.44-14.62,18.01-32.04,31.18-40.27,1.49,6.81-2.92,14.83-5.79,21.59-5.9,12.09-13.54,23.49-22.47,33.62-4.09,4.54-8.55,9.08-13.44,13.14,2.71-9.71,6.53-19.16,10.52-28.08ZM180.58,98.75c-2.34,5.07-9.03,9.55-12.96,6.7-5.9-5.54-3.08-13.72,2.66-18.42-.27,1.79.05,3.75,1.12,5.75,2.02,3.69,5.68,4.96,9.35,5.49-.05.16-.11.32-.16.47ZM176.28,87.45c.48-.79.53-.74,1.17-.79,1.49-.16,2.5.26,3.24,1.95.69,1.37,1.01,2.9,1.06,4.49-3.93-.47-6.8-2.16-5.47-5.65ZM273.21,84.18c1.33-.95,3.03-1.69,4.3-1.16.37.47-1.79,3.3-2.82,4.37-5.88,6.12-9.25,4.99-9.72,5.15,4.3-4.01,6.23-6.77,8.24-8.36ZM304.71,104.87c.11-.21.21-.48.27-.58,0,.32-.16.58-.27.58Z"/>
        <path class="uuid-ad72b91c-7470-4908-8632-0708b7850658" d="M176.41,70.37c-.35.72-.89,1.33-1.51,1.67-.39.22-.8.34-1.18.34-.29,0-.55-.06-.81-.18-1.18-.57-1.51-2.26-.73-3.86.78-1.59,2.32-2.4,3.5-1.82.58.29,1,.88,1.12,1.64.1.7-.03,1.49-.39,2.22Z"/>
        <path class="uuid-ad72b91c-7470-4908-8632-0708b7850658" d="M187.71,70.37c-.62,1.24-1.68,2.01-2.69,2.01-.29,0-.55-.06-.82-.18-.58-.28-1-.88-1.11-1.64-.11-.7.03-1.49.38-2.22.36-.72.89-1.33,1.51-1.67.68-.39,1.41-.44,1.99-.15,1.19.57,1.51,2.26.74,3.86Z"/>
      </g>
      <g>
        <path class="uuid-1e1aa39a-2c7c-4784-bb85-495191f13f14" d="M18.3,164.77c0-1.06.74-1.8,1.7-1.8h12.93c.95,0,1.7.74,1.7,1.8v27.88h13.67v-27.88c0-1.06.64-1.8,1.59-1.8h13.14c.95,0,1.59.74,1.59,1.8v71.45c0,1.06-.64,1.8-1.59,1.8h-13.14c-.95,0-1.59-.74-1.59-1.8v-27.77h-13.67v27.77c0,1.06-.74,1.8-1.7,1.8h-12.93c-.95,0-1.7-.74-1.7-1.8v-71.45Z"/>
        <path class="uuid-1e1aa39a-2c7c-4784-bb85-495191f13f14" d="M112.11,238.02c-.95,0-1.7-.74-1.7-1.8v-71.45c0-1.06.74-1.8,1.7-1.8h31.27c.95,0,1.8.53,1.48,2.12l-2.33,11.55c-.21,1.27-.85,1.91-2.23,1.91h-13.57v14.31h10.39c.95,0,1.59.74,1.59,1.8v11.24c0,1.06-.64,1.8-1.59,1.8h-10.39v14.84h15.37c.95,0,1.59.74,1.59,1.8v11.87c0,1.06-.64,1.8-1.59,1.8h-30Z"/>
        <path class="uuid-1e1aa39a-2c7c-4784-bb85-495191f13f14" d="M187.79,164.77c0-1.06.74-1.8,1.7-1.8h13.14c.95,0,1.59.74,1.59,1.8v57.77h15.26c.95,0,1.59.74,1.59,1.8v11.87c0,1.06-.64,1.8-1.59,1.8h-30c-.95,0-1.7-.74-1.7-1.8v-71.45Z"/>
        <path class="uuid-1e1aa39a-2c7c-4784-bb85-495191f13f14" d="M264.53,164.77c0-1.06.74-1.8,1.7-1.8h13.14c.95,0,1.59.74,1.59,1.8v57.77h15.26c.95,0,1.59.74,1.59,1.8v11.87c0,1.06-.64,1.8-1.59,1.8h-30c-.95,0-1.7-.74-1.7-1.8v-71.45Z"/>
        <path class="uuid-1e1aa39a-2c7c-4784-bb85-495191f13f14" d="M390.67,235.58c.42,1.7-.21,2.44-1.38,2.44h-13.36c-.95,0-1.91-.53-2.12-1.8l-2.01-10.18h-14.95l-1.91,10.18c-.21,1.27-1.17,1.8-2.12,1.8h-13.04c-1.17,0-1.8-.74-1.38-2.44l16.54-70.81c.21-1.06,1.06-1.8,2.33-1.8h14.52c1.27,0,2.12.74,2.33,1.8l16.54,70.81ZM359.61,212.05h9.54l-4.77-24.8-4.77,24.8Z"/>
      </g>
    </g>
  </g>
</svg>