<?xml version="1.0" encoding="UTF-8"?>
<svg id="uuid-ffd8264a-aa37-47fd-83cb-3d8904a2840b" data-name="Layer 2" xmlns="http://www.w3.org/2000/svg" viewBox="0 0 195.52 97.6">
  <defs>
    <style>
      .uuid-d82e564b-95a3-49a5-aaff-d49795eba304 {
        fill: #fff;
      }

      .uuid-58c0dcf7-5678-4303-9a15-d6819b20fda3 {
        fill: #a6f8ff;
      }
    </style>
  </defs>
  <g id="uuid-05bf73e2-f17c-4d42-b2b1-a0b9e283209b" data-name="Layer 1">
    <g>
      <path class="uuid-58c0dcf7-5678-4303-9a15-d6819b20fda3" d="M130.1.1h-25.4c-.6,0-1.1.3-1.5.7l-23.6,29c-1.1,1.4-3.4.6-3.4-1.2V2c0-1.1-.9-1.9-1.9-1.9h-18.3c-1.1,0-1.9.9-1.9,1.9v33.1c0,1.1-.9,1.9-1.9,1.9h-29.7c-1.1,0-1.9-.9-1.9-1.9V2c0-1.1-.9-1.9-1.9-1.9H1.9C.8.1,0,1,0,2v93.7c0,1.1.9,1.9,1.9,1.9h16.8c1.1,0,1.9-.9,1.9-1.9v-37.6c0-1.1.9-1.9,1.9-1.9h29.7c1.1,0,1.9.9,1.9,1.9v37.6c0,1.1.9,1.9,1.9,1.9h18.3c1.1,0,1.9-.9,1.9-1.9v-34c0-.5.2-.9.5-1.3l1.2-1.4c.8-1,2.3-.9,3,.2l25.2,37.5c.4.5.63.85,1.23.85h1.64l8.33-20.65-22.6-33.3c-.5-.7-.4-1.7.1-2.3L130,0h0l.1.1Z"/>
      <path class="uuid-d82e564b-95a3-49a5-aaff-d49795eba304" d="M164.37,15.15h0c0-.1-33.1,82.4-33.1,82.4h-22.3L145.87,6.05c1.5-3.7,5-6,8.9-6h15.7l-6.1,15.1Z"/>
      <path class="uuid-58c0dcf7-5678-4303-9a15-d6819b20fda3" d="M195.17,50.25l-14.7,40c-1.6,4.4-5.7,7.2-10.4,7.2h-11.8l17.3-47.3c.6-1.6.6-3.4,0-5.1l-7.4-19.6-3.8-10.3L170.47.05h2.47c3.6,0,5.83,1.9,7.13,5.2h0l15,39.7c.6,1.6.6,3.4,0,5.1l.1.2Z"/>
    </g>
  </g>
</svg>