<svg width="48" height="25" viewBox="0 0 48 25" fill="none" xmlns="http://www.w3.org/2000/svg">
<path d="M17.8361 4.52028C17.8361 4.28766 17.7265 3.99139 17.3733 3.64281C17.0176 3.29178 16.4619 2.93896 15.7113 2.62565C14.2138 2.00057 12.0906 1.59539 9.70492 1.59539C7.3192 1.59539 5.19606 2.00057 3.69857 2.62565C2.94797 2.93896 2.39227 3.29178 2.03658 3.64281C1.68337 3.99139 1.57377 4.28766 1.57377 4.52028C1.57377 4.75291 1.68337 5.04917 2.03658 5.39775C2.39227 5.74878 2.94797 6.1016 3.69857 6.41491C5.19606 7.04 7.3192 7.44517 9.70492 7.44517C12.0906 7.44517 14.2138 7.04 15.7113 6.41491C16.4619 6.1016 17.0176 5.74878 17.3733 5.39775C17.7265 5.04917 17.8361 4.75291 17.8361 4.52028ZM1.57377 20.4313C1.6004 20.6568 1.73792 20.9597 2.11783 21.3131C2.51168 21.6795 3.11089 22.0458 3.91209 22.3694C4.70824 22.6909 5.65909 22.9521 6.71271 23.132C7.76512 23.3116 8.88914 23.4046 10.0188 23.4046C11.1485 23.4046 12.2549 23.3115 13.2733 23.1326C14.2934 22.9533 15.1924 22.6938 15.9236 22.3769C16.6611 22.0574 17.1755 21.7023 17.4848 21.3611C17.7857 21.0292 17.8569 20.7556 17.8389 20.542L17.8361 20.5082V17.8197C17.4547 18.0842 17.0184 18.3195 16.5421 18.5259C15.6753 18.9014 14.6543 19.1911 13.542 19.3865C12.428 19.5823 11.2313 19.682 10.0188 19.682C8.80611 19.682 7.59453 19.5823 6.45143 19.3872C5.30957 19.1924 4.24796 18.9043 3.32961 18.5335C2.66637 18.2656 2.07145 17.9519 1.57377 17.5941V20.4313ZM33.7001 6.76588C35.1394 6.27952 36.7067 6.36077 38.0896 6.99345C39.4724 7.62614 40.5694 8.76385 41.1618 10.1798C41.7542 11.5957 41.7985 13.1859 41.2861 14.6335C40.8777 15.787 40.1396 16.7825 39.1759 17.4991L40.2361 18.932L38.9771 19.8892L35.8295 15.6349L37.0885 14.6776L38.2314 16.2224C38.9503 15.6921 39.5011 14.9526 39.8048 14.0946C40.1836 13.0246 40.1508 11.8492 39.7129 10.8027C39.275 9.75612 38.4642 8.91522 37.4421 8.44759C36.42 7.97997 35.2617 7.91996 34.1978 8.27943C33.134 8.63891 32.2428 9.3915 31.7018 10.3873C31.1609 11.3831 31.0101 12.549 31.2792 13.6526C31.5483 14.7561 32.2177 15.7164 33.154 16.342C34.0903 16.9676 35.2248 17.2126 36.3314 17.0281L36.5867 18.6023C35.0896 18.8519 33.5548 18.5204 32.288 17.6741C31.0212 16.8277 30.1155 15.5285 29.7514 14.0354C29.3873 12.5423 29.5914 10.965 30.3233 9.61775C31.0551 8.2705 32.2608 7.25225 33.7001 6.76588ZM42.4918 15.1562V6.64747H44.0656V15.1562C44.0656 15.6499 44.2591 16.1233 44.6034 16.4723C44.9477 16.8214 45.4147 17.0175 45.9016 17.0175H48V18.6129H45.9016C44.9973 18.6129 44.1299 18.2488 43.4905 17.6005C42.871 16.9725 42.5145 16.1277 42.4928 15.242L42.4918 15.1562ZM26.0511 6.38261C26.4703 6.39307 26.8843 6.48181 27.2721 6.64467C27.6858 6.81838 28.0618 7.07298 28.3784 7.39396C28.695 7.71494 28.9462 8.09604 29.1175 8.51541C29.2889 8.9348 29.377 9.38432 29.377 9.83826H27.8033C27.8033 9.59383 27.7558 9.35176 27.6635 9.12594C27.5713 8.90013 27.436 8.69499 27.2655 8.52216C27.095 8.34933 26.8926 8.21218 26.6699 8.11864C26.461 8.03095 26.2381 7.98312 26.0124 7.97749L25.9672 7.97697C25.7261 7.97697 25.4873 8.0251 25.2645 8.11864C25.0418 8.21218 24.8394 8.34933 24.669 8.52216C24.4985 8.69499 24.3632 8.90013 24.2709 9.12594C24.1786 9.35176 24.1311 9.59383 24.1311 9.83826V9.85166L24.1307 9.86495C24.1203 10.182 24.1689 10.4929 24.2684 10.7709C24.3681 11.0491 24.5125 11.2776 24.6785 11.4458C24.8436 11.6132 25.0226 11.7141 25.1956 11.7598C25.367 11.8051 25.5438 11.7996 25.7182 11.7406L25.8357 11.7008L25.9595 11.6996C26.3683 11.6955 26.7675 11.7945 27.1321 11.9833C27.4955 12.1715 27.8128 12.4427 28.0714 12.7704C28.3298 13.0978 28.5271 13.4782 28.6586 13.8861C28.7902 14.2941 28.8552 14.7271 28.8525 15.1613L28.8523 15.1985L28.8486 15.2356C28.7582 16.1513 28.3127 16.9932 27.6101 17.5759C26.9075 18.1587 26.0054 18.4346 25.102 18.3431C24.1987 18.2515 23.3683 17.7999 22.7934 17.0876C22.2186 16.3754 21.9464 15.4608 22.0367 14.5451L23.6027 14.7038C23.5539 15.1985 23.7009 15.6925 24.0115 16.0773C24.322 16.4621 24.7706 16.7061 25.2586 16.7556C25.7466 16.805 26.234 16.656 26.6135 16.3411C26.9837 16.0341 27.2217 15.5939 27.2785 15.1133C27.2763 14.8589 27.2364 14.6103 27.1627 14.3817C27.0853 14.1417 26.9742 13.9339 26.8424 13.767C26.7109 13.6003 26.564 13.4806 26.4161 13.404C26.3004 13.3441 26.1832 13.3101 26.0677 13.299C25.6519 13.4117 25.2181 13.4144 24.7988 13.3037C24.331 13.1801 23.9105 12.9235 23.5657 12.5739C23.2216 12.2251 22.9596 11.7914 22.7891 11.3155C22.6189 10.8401 22.5411 10.3265 22.5577 9.81416C22.5607 9.36842 22.6486 8.92737 22.8169 8.51541C22.9883 8.09604 23.2394 7.71494 23.556 7.39396C23.8727 7.07298 24.2486 6.81838 24.6623 6.64467C25.076 6.47095 25.5194 6.38157 25.9672 6.38157L26.0511 6.38261ZM1.57377 15.1133C1.6004 15.3388 1.73792 15.6418 2.11783 15.9952C2.51168 16.3615 3.11089 16.7278 3.91209 17.0514C4.70824 17.3729 5.65909 17.6342 6.71271 17.814C7.76512 17.9936 8.88914 18.0866 10.0188 18.0866C11.1485 18.0866 12.2549 17.9936 13.2733 17.8146C14.2934 17.6353 15.1924 17.3758 15.9236 17.059C16.6611 16.7394 17.1755 16.3843 17.4848 16.0432C17.7197 15.7841 17.8143 15.5605 17.8361 15.3733V12.5017C17.4547 12.7662 17.0184 13.0015 16.5421 13.2079C15.6753 13.5835 14.6543 13.8731 13.542 14.0685C12.428 14.2643 11.2313 14.364 10.0188 14.364C8.80611 14.364 7.59453 14.2644 6.45143 14.0693C5.30957 13.8744 4.24796 13.5863 3.32961 13.2155C2.66637 12.9476 2.07145 12.6339 1.57377 12.2761V15.1133ZM17.8361 7.0672C17.393 7.37994 16.876 7.65412 16.3106 7.89013C14.5804 8.61236 12.2445 9.04056 9.70492 9.04056C7.16536 9.04056 4.82948 8.61236 3.09928 7.89013C2.53387 7.65412 2.01687 7.37994 1.57377 7.0672V9.79536C1.6004 10.0208 1.73792 10.3238 2.11783 10.6772C2.51168 11.0436 3.11089 11.4099 3.91209 11.7334C4.70824 12.0549 5.65909 12.3162 6.71271 12.496C7.76512 12.6756 8.88914 12.7687 10.0188 12.7687C11.1485 12.7687 12.2549 12.6756 13.2733 12.4966C14.2934 12.3174 15.1924 12.0578 15.9236 11.741C16.6611 11.4214 17.1755 11.0663 17.4848 10.7252C17.7197 10.4661 17.8143 10.2425 17.8361 10.0553V7.0672ZM19.4098 9.81125C19.4171 9.91955 19.417 10.0264 19.4098 10.1317V15.1292C19.4171 15.2375 19.417 15.3444 19.4098 15.4497V20.4472C19.4602 21.1968 19.1536 21.8782 18.6435 22.4407C18.1327 23.0042 17.4025 23.4711 16.5421 23.8439C15.6753 24.2194 14.6543 24.509 13.542 24.7045C12.428 24.9003 11.2313 25 10.0188 25C8.80611 25 7.59453 24.9003 6.45143 24.7052C5.30957 24.5103 4.24796 24.2223 3.32961 23.8514C2.41631 23.4826 1.63243 23.027 1.05379 22.4887C0.475422 21.9507 0.0661199 21.2934 0.00286885 20.542L0 20.5082V4.52028C0 3.72495 0.389494 3.04191 0.938832 2.49976C1.48568 1.96007 2.23605 1.51076 3.09928 1.15043C4.82948 0.428206 7.16536 0 9.70492 0C12.2445 0 14.5804 0.428206 16.3106 1.15043C17.1738 1.51076 17.9242 1.96007 18.471 2.49976C19.0203 3.04191 19.4098 3.72495 19.4098 4.52028V9.81125Z" fill="#DF6C20"/>
</svg>
