<?xml version="1.0" encoding="UTF-8"?>
<svg id="uuid-1052a3b4-79c8-486f-a220-ee70ac287bc9" data-name="Layer 2" xmlns="http://www.w3.org/2000/svg" viewBox="0 0 342.04 253.08">
  <defs>
    <style>
      .uuid-e1609b86-7a61-40d8-bc39-62ff488803d9 {
        fill: #0e0e11;
      }

      .uuid-aff5ee24-a633-473a-ab89-a1b135092300 {
        fill: #363e52;
      }

      .uuid-5fa47c0c-6922-4e88-9373-6ad3e4f495c1 {
        fill: #fff;
      }

      .uuid-99d048fa-3e03-4ba8-b1db-fd7e8546f778 {
        fill: #4b5571;
      }

      .uuid-469a867f-8c62-4a82-a7ab-d749103d4db9 {
        fill: #31384a;
      }

      .uuid-85cbfcc7-bce8-4d92-b444-30c747809807 {
        fill: #f58320;
      }

      .uuid-c07fff79-72ed-44a6-b266-da83cc1d9548 {
        fill: #3d455c;
      }
    </style>
  </defs>
  <g id="uuid-4b7a7f9c-8b08-4d5c-a544-cbfe6fbd4c43" data-name="Layer 1">
    <rect class="uuid-e1609b86-7a61-40d8-bc39-62ff488803d9" y=".39" width="342.04" height="252.7" rx="14.17" ry="14.17"/>
    <g>
      <rect class="uuid-469a867f-8c62-4a82-a7ab-d749103d4db9" x="38.39" y="76.39" width="273.55" height="119.56" rx="14.17" ry="14.17"/>
      <rect class="uuid-99d048fa-3e03-4ba8-b1db-fd7e8546f778" x="46.26" y="92.68" width="259.2" height="11.34" rx="5.67" ry="5.67"/>
      <rect class="uuid-c07fff79-72ed-44a6-b266-da83cc1d9548" x="46.26" y="111.61" width="259.2" height="11.34" rx="5.67" ry="5.67"/>
      <rect class="uuid-c07fff79-72ed-44a6-b266-da83cc1d9548" x="46.26" y="130.53" width="259.2" height="11.34" rx="5.67" ry="5.67"/>
      <rect class="uuid-aff5ee24-a633-473a-ab89-a1b135092300" x="46.26" y="149.45" width="259.2" height="11.34" rx="5.67" ry="5.67"/>
      <rect class="uuid-aff5ee24-a633-473a-ab89-a1b135092300" x="46.26" y="168.38" width="259.2" height="11.34" rx="5.67" ry="5.67"/>
    </g>
    <path class="uuid-85cbfcc7-bce8-4d92-b444-30c747809807" d="M14.17,0h313.7C335.69,0,342.04,6.35,342.04,14.17v5.32H0v-5.32C0,6.35,6.35,0,14.17,0Z"/>
    <g>
      <path class="uuid-5fa47c0c-6922-4e88-9373-6ad3e4f495c1" d="M46.66,63.67h-2.33v-3.49h-2.69v3.49h-2.33v-8.57h2.33v3.18h2.69v-3.18h2.33v8.57Z"/>
      <path class="uuid-5fa47c0c-6922-4e88-9373-6ad3e4f495c1" d="M51.62,56.92c.84,0,1.5.21,1.97.62s.71,1.01.71,1.78v4.35h-1.59l-.44-.88h-.05c-.19.23-.38.42-.58.57s-.42.25-.68.32-.56.1-.93.1-.73-.08-1.03-.23-.54-.39-.72-.71-.26-.72-.26-1.2c0-.71.25-1.24.74-1.58s1.21-.54,2.14-.58l1.11-.04v-.09c0-.3-.07-.51-.22-.63s-.34-.19-.59-.19c-.26,0-.55.05-.88.14s-.65.21-.97.35l-.66-1.51c.38-.2.82-.34,1.3-.45s1.03-.15,1.63-.15ZM52.01,60.71l-.53.02c-.42.02-.72.09-.89.22s-.25.32-.25.56c0,.23.06.39.18.5s.28.16.48.16c.28,0,.51-.09.71-.26s.3-.4.3-.69v-.52Z"/>
      <path class="uuid-5fa47c0c-6922-4e88-9373-6ad3e4f495c1" d="M58.14,63.67h-2.29v-9.12h2.29v9.12Z"/>
      <path class="uuid-5fa47c0c-6922-4e88-9373-6ad3e4f495c1" d="M62.02,63.67h-2.29v-9.12h2.29v9.12Z"/>
      <path class="uuid-5fa47c0c-6922-4e88-9373-6ad3e4f495c1" d="M64.78,54.36c.33,0,.61.07.86.21s.37.41.37.81-.12.66-.37.8-.53.21-.86.21-.62-.07-.86-.21-.35-.41-.35-.8.12-.68.35-.81.52-.21.86-.21ZM65.91,57.04v6.64h-2.29v-6.64h2.29Z"/>
      <path class="uuid-5fa47c0c-6922-4e88-9373-6ad3e4f495c1" d="M71.67,56.92c.68,0,1.24.19,1.68.58s.65,1.01.65,1.86v4.32h-2.29v-3.62c0-.44-.06-.77-.19-1s-.33-.34-.61-.34c-.43,0-.72.18-.87.53s-.22.86-.22,1.52v2.91h-2.29v-6.64h1.73l.31.88h.09c.14-.21.31-.39.5-.54s.42-.26.67-.34.54-.12.85-.12Z"/>
      <path class="uuid-5fa47c0c-6922-4e88-9373-6ad3e4f495c1" d="M78.8,61.98c.21,0,.4-.02.57-.06s.35-.1.54-.16v1.67c-.25.11-.51.2-.79.27s-.64.1-1.07.1-.81-.07-1.14-.2-.58-.37-.76-.7-.27-.8-.27-1.4v-2.74h-.8v-.93l1.02-.72.59-1.39h1.5v1.33h1.63v1.72h-1.63v2.58c0,.21.05.38.16.48s.26.16.46.16Z"/>
      <path class="uuid-5fa47c0c-6922-4e88-9373-6ad3e4f495c1" d="M84.31,56.92c.84,0,1.5.21,1.97.62s.71,1.01.71,1.78v4.35h-1.59l-.44-.88h-.05c-.19.23-.38.42-.58.57s-.42.25-.68.32-.56.1-.93.1-.73-.08-1.03-.23-.54-.39-.72-.71-.26-.72-.26-1.2c0-.71.25-1.24.74-1.58s1.21-.54,2.14-.58l1.11-.04v-.09c0-.3-.07-.51-.22-.63s-.34-.19-.59-.19c-.26,0-.55.05-.88.14s-.65.21-.97.35l-.66-1.51c.38-.2.82-.34,1.3-.45s1.03-.15,1.63-.15ZM84.71,60.71l-.53.02c-.42.02-.72.09-.89.22s-.25.32-.25.56c0,.23.06.39.18.5s.28.16.48.16c.28,0,.51-.09.71-.26s.3-.4.3-.69v-.52Z"/>
      <path class="uuid-5fa47c0c-6922-4e88-9373-6ad3e4f495c1" d="M92.6,56.92c.73,0,1.31.29,1.73.88s.63,1.43.63,2.54c0,.75-.11,1.39-.32,1.9s-.5.9-.86,1.16-.78.39-1.25.39c-.31,0-.58-.04-.79-.12s-.4-.18-.54-.29-.26-.24-.36-.36h-.07c.02.15.04.32.05.49s.02.38.02.62v2.43h-2.29v-9.52h1.86l.32.84h.11c.11-.17.24-.33.4-.48s.35-.26.57-.35.49-.13.79-.13ZM91.74,58.72c-.22,0-.4.05-.53.16s-.22.26-.28.48-.09.48-.1.79v.18c0,.35.03.65.08.89s.15.42.28.54.32.18.55.18c.19,0,.35-.05.48-.16s.23-.28.29-.52.1-.55.1-.94c0-.58-.08-.99-.23-1.24s-.37-.36-.66-.36Z"/>
      <path class="uuid-5fa47c0c-6922-4e88-9373-6ad3e4f495c1" d="M99.51,56.92c.84,0,1.5.21,1.97.62s.71,1.01.71,1.78v4.35h-1.59l-.44-.88h-.05c-.19.23-.38.42-.58.57s-.42.25-.68.32-.56.1-.93.1-.73-.08-1.03-.23-.54-.39-.72-.71-.26-.72-.26-1.2c0-.71.25-1.24.74-1.58s1.21-.54,2.14-.58l1.11-.04v-.09c0-.3-.07-.51-.22-.63s-.34-.19-.59-.19c-.26,0-.55.05-.88.14s-.65.21-.97.35l-.66-1.51c.38-.2.82-.34,1.3-.45s1.03-.15,1.63-.15ZM99.9,60.71l-.53.02c-.42.02-.72.09-.89.22s-.25.32-.25.56c0,.23.06.39.18.5s.28.16.48.16c.28,0,.51-.09.71-.26s.3-.4.3-.69v-.52Z"/>
      <path class="uuid-5fa47c0c-6922-4e88-9373-6ad3e4f495c1" d="M107.9,56.92c.68,0,1.24.19,1.68.58s.65,1.01.65,1.86v4.32h-2.29v-3.62c0-.44-.06-.77-.19-1s-.33-.34-.61-.34c-.43,0-.72.18-.87.53s-.22.86-.22,1.52v2.91h-2.29v-6.64h1.73l.31.88h.09c.14-.21.31-.39.5-.54s.42-.26.67-.34.54-.12.85-.12Z"/>
      <path class="uuid-5fa47c0c-6922-4e88-9373-6ad3e4f495c1" d="M114.77,56.92c.64,0,1.2.11,1.67.34s.83.56,1.08,1.01.38,1.01.38,1.69v1.02h-4.1c.02.35.15.63.39.86s.59.33,1.06.33c.41,0,.79-.04,1.14-.12s.7-.21,1.07-.38v1.65c-.32.17-.67.29-1.05.37s-.86.12-1.44.12c-.67,0-1.27-.12-1.79-.36s-.94-.61-1.25-1.11-.45-1.14-.45-1.93.14-1.45.41-1.97.66-.89,1.15-1.14,1.06-.37,1.72-.37ZM114.85,58.48c-.27,0-.5.08-.68.25s-.29.44-.32.8h1.97c0-.2-.04-.37-.12-.53s-.18-.29-.33-.38-.32-.14-.53-.14Z"/>
      <path class="uuid-5fa47c0c-6922-4e88-9373-6ad3e4f495c1" d="M122.19,56.92c.64,0,1.2.11,1.67.34s.83.56,1.08,1.01.38,1.01.38,1.69v1.02h-4.1c.02.35.15.63.39.86s.59.33,1.06.33c.41,0,.79-.04,1.14-.12s.7-.21,1.07-.38v1.65c-.32.17-.67.29-1.05.37s-.86.12-1.44.12c-.67,0-1.27-.12-1.79-.36s-.94-.61-1.25-1.11-.45-1.14-.45-1.93.14-1.45.41-1.97.66-.89,1.15-1.14,1.06-.37,1.72-.37ZM122.27,58.48c-.27,0-.5.08-.68.25s-.29.44-.32.8h1.97c0-.2-.04-.37-.12-.53s-.18-.29-.33-.38-.32-.14-.53-.14Z"/>
      <path class="uuid-5fa47c0c-6922-4e88-9373-6ad3e4f495c1" d="M128.91,63.67h-2.29v-9.12h2.29v9.12Z"/>
      <path class="uuid-5fa47c0c-6922-4e88-9373-6ad3e4f495c1" d="M131.66,54.36c.33,0,.61.07.86.21s.37.41.37.81-.12.66-.37.8-.53.21-.86.21-.62-.07-.86-.21-.35-.41-.35-.8.12-.68.35-.81.52-.21.86-.21ZM132.8,57.04v6.64h-2.29v-6.64h2.29Z"/>
    </g>
    <g id="uuid-eb929455-1e49-4786-855e-a4b1f1cc181f" data-name="uuid-9cdeacce-177d-4aef-8b10-db748868373c">
      <g>
        <g>
          <path class="uuid-5fa47c0c-6922-4e88-9373-6ad3e4f495c1" d="M19.69,8.39c.05,0,.1.02.15.03.76.15,1.3.49,1.44.92.07.22.06.57-.35.98-.91.91-2.28,1.05-2.72,1.09-.44.04-.84.06-1.2.06-.12,0-.23,0-.34,0-.02.11-.03.22-.05.33-.01.07-.07.11-.13.11h-.02c-.07,0-.12-.07-.12-.15.01-.11.03-.21.04-.31-1.71-.12-2.2-.72-2.23-.75-.04-.06-.03-.14.03-.18.06-.04.14-.03.18.02.01.01.47.54,2.06.65.61-3.34,2.79-6.7,2.81-6.73.04-.06.12-.08.18-.04.06.04.08.12.04.18-.02.03-2.16,3.32-2.77,6.6.42.02.9,0,1.46-.06.42-.04,1.72-.17,2.56-1.01.26-.25.35-.5.29-.72-.1-.33-.57-.62-1.23-.75-.55-.11-1.06-.09-1.35-.08-.09,0-.17.02-.26.02-.07,0-.13-.04-.14-.12s.04-.13.11-.14c.01,0,.12-.02.29-.03,3.06-.33,4.16-1.64,4.16-2.7,0-.43-.5-1.55-2.79-1.55s-4.74,1.63-4.74,3.23c0,1.4.88,1.76,1.26,1.85.06.02.12.08.12.14,0,.07-.06.12-.12.12-.02,0-.04,0-.06,0-.36-.09-1.46-.49-1.46-2.11,0-1.76,2.48-3.49,5.01-3.49s3.06,1.31,3.06,1.81c0,1-.86,2.21-3.17,2.76h0Z"/>
          <path class="uuid-5fa47c0c-6922-4e88-9373-6ad3e4f495c1" d="M32.58,8c-.05-.05-.13-.06-.19-.01-.26.23-.52.45-.79.65-.44.32-1.34.99-.8-.1.08-.22.33-.56.08-.75-.16-.11-.37,0-.5.07-.35.2-.62.47-.91.72.02-.08.04-.16.06-.24.02-.11.06-.21-.02-.33,0-.01-.05-.05-.08-.06-.04,0-.07,0-.09,0-.07.03-.08.05-.1.07-.42.48-.91.95-1.56,1.06-.26.05-.5.02-.45-.27,0-.03.04-.07.13-.1.12-.03.84-.35.86-.79-.01-.15-.19-.26-.33-.24-.22,0-.38.17-.52.29-.13.11-.27.22-.4.33-.51.45-1.02.93-1.59,1.23-.14.07-.3.12-.35.06-.08-.05-.12-.22-.13-.37-.02-.36.02-.73.1-1.09.36-.26.69-.57.97-.89.42-.42,2.04-2.76,1.3-3.17-.3-.06-.53.24-.71.41-.72.77-1.23,1.71-1.56,2.7-.08.26-.16.52-.23.79-.4.27-.83.46-1.31.49,0-.17-.06-.34-.16-.49.12-.04.12-.24-.03-.26-.7-.12-1.41.64-1.12,1.31.26.61,1.03.3,1.23-.18.02-.04.04-.08.05-.12.46-.01.88-.17,1.27-.39-.07.4-.09.8,0,1.2.29.86,1.48-.09,2.31-.84-.2.83.71.75,1.26.49.39-.17.71-.45.99-.76-.05.17-.12.38-.15.47h0,0s0,.01-.02.02c-.03-.02-.07.22.18.18.01,0,.02-.01.03-.02,0,0,0,0,0,0,.42-.3.79-.72,1.22-.98.08-.04.15-.08.21-.08-.04.37-.73,1.19-.07,1.39.45,0,.78-.32,1.11-.55.28-.21.54-.43.8-.66.06-.05.06-.13.01-.19h0ZM25.63,6.33c.37-.73.9-1.6,1.55-2,.07.34-.15.74-.29,1.07-.29.6-.67,1.17-1.12,1.67-.2.23-.43.45-.67.65.13-.48.33-.95.52-1.4ZM23.14,8.74c-.12.25-.45.48-.65.33-.29-.28-.15-.68.13-.92-.01.09,0,.19.06.29.1.18.28.25.47.27,0,0,0,.02,0,.02h0ZM22.93,8.17s.03-.04.06-.04c.07,0,.12.01.16.1.03.07.05.14.05.22-.2-.02-.34-.11-.27-.28ZM27.75,8.01c.07-.05.15-.08.21-.06.02.02-.09.16-.14.22-.29.3-.46.25-.48.26.21-.2.31-.34.41-.42h0ZM29.32,9.04s.01-.02.01-.03c0,.02,0,.03-.01.03Z"/>
          <path class="uuid-5fa47c0c-6922-4e88-9373-6ad3e4f495c1" d="M22.93,7.32s-.04.07-.08.08c-.02.01-.04.02-.06.02-.01,0-.03,0-.04,0-.06-.03-.08-.11-.04-.19.04-.08.12-.12.17-.09.03.01.05.04.06.08,0,.03,0,.07-.02.11h0Z"/>
          <path class="uuid-5fa47c0c-6922-4e88-9373-6ad3e4f495c1" d="M23.49,7.32c-.03.06-.08.1-.13.1-.01,0-.03,0-.04,0-.03-.01-.05-.04-.06-.08,0-.03,0-.07.02-.11.02-.04.04-.07.08-.08.03-.02.07-.02.1,0,.06.03.08.11.04.19h0Z"/>
        </g>
        <g>
          <path class="uuid-5fa47c0c-6922-4e88-9373-6ad3e4f495c1" d="M15.06,12.02c0-.05.04-.09.08-.09h.64s.08.04.08.09v1.39h.68v-1.39c0-.05.03-.09.08-.09h.65s.08.04.08.09v3.56c0,.05-.03.09-.08.09h-.65s-.08-.04-.08-.09v-1.38h-.68v1.38c0,.05-.04.09-.08.09h-.64s-.08-.04-.08-.09c0,0,0-3.56,0-3.56Z"/>
          <path class="uuid-5fa47c0c-6922-4e88-9373-6ad3e4f495c1" d="M19.73,15.67s-.08-.04-.08-.09v-3.56c0-.05.04-.09.08-.09h1.56s.09.03.07.11l-.12.57c-.01.06-.04.1-.11.1h-.68v.71h.52s.08.04.08.09v.56c0,.05-.03.09-.08.09h-.52v.74h.77s.08.04.08.09v.59c0,.05-.03.09-.08.09h-1.49,0Z"/>
          <path class="uuid-5fa47c0c-6922-4e88-9373-6ad3e4f495c1" d="M23.5,12.02c0-.05.04-.09.08-.09h.65s.08.04.08.09v2.88h.76s.08.04.08.09v.59c0,.05-.03.09-.08.09h-1.49s-.08-.04-.08-.09v-3.56h0Z"/>
          <path class="uuid-5fa47c0c-6922-4e88-9373-6ad3e4f495c1" d="M27.32,12.02c0-.05.04-.09.08-.09h.65s.08.04.08.09v2.88h.76s.08.04.08.09v.59c0,.05-.03.09-.08.09h-1.49s-.08-.04-.08-.09v-3.56h0Z"/>
          <path class="uuid-5fa47c0c-6922-4e88-9373-6ad3e4f495c1" d="M33.6,15.55c.02.08-.01.12-.07.12h-.67s-.1-.03-.11-.09l-.1-.51h-.74l-.1.51c-.01.06-.06.09-.11.09h-.65c-.06,0-.09-.04-.07-.12l.82-3.53c.01-.05.05-.09.12-.09h.72c.06,0,.11.04.12.09l.82,3.53h0ZM32.05,14.38h.47l-.24-1.23-.24,1.23h0Z"/>
        </g>
      </g>
    </g>
  </g>
</svg>