<?xml version="1.0" encoding="UTF-8"?>
<svg id="uuid-f368a9e4-24ac-4b75-86ba-7f251539d16c" data-name="Layer 2" xmlns="http://www.w3.org/2000/svg" viewBox="0 0 710 526.31">
  <defs>
    <style>
      .uuid-b34d519e-08d6-47b4-82dd-9bad09ea99f1 {
        fill: #56646e;
      }

      .uuid-df774d9d-71cb-4659-8c04-40f72e126379 {
        fill: #426680;
      }

      .uuid-1776b46f-142d-4026-8115-e7dd7ea5d39c {
        fill: #526069;
      }

      .uuid-d2826fc7-df75-4699-a523-e476ebac9486, .uuid-98771563-3861-42ce-b043-8f2a16a1c951, .uuid-6318b11c-7dce-4aac-986a-2686b96aaa6e {
        fill: #fff;
      }

      .uuid-9c7354ac-8468-4d5c-bce6-427ba3b0e5e2 {
        opacity: .76;
      }

      .uuid-9c7354ac-8468-4d5c-bce6-427ba3b0e5e2, .uuid-9b1a8422-e4dd-4b4c-b50f-b7f2ad53ed9e, .uuid-22f14f36-b796-4249-b598-d20eaa3b4d1a, .uuid-cc5d98d7-1797-4169-937a-f107c5e655f5 {
        fill: #3e484f;
      }

      .uuid-f8ebe742-3b0d-42d0-ba6c-5efb918121d3, .uuid-f7108f45-4b7e-4ea8-8623-145c19de90d9 {
        fill: #3a444a;
      }

      .uuid-f8ebe742-3b0d-42d0-ba6c-5efb918121d3, .uuid-98771563-3861-42ce-b043-8f2a16a1c951 {
        font-family: OpenSansRoman-Bold, 'Open Sans';
        font-size: 11.16px;
        font-variation-settings: 'wght' 700, 'wdth' 100;
      }

      .uuid-f8ebe742-3b0d-42d0-ba6c-5efb918121d3, .uuid-98771563-3861-42ce-b043-8f2a16a1c951, .uuid-6318b11c-7dce-4aac-986a-2686b96aaa6e {
        font-weight: 700;
      }

      .uuid-d5e9be89-010a-4c81-8064-0490c526296a {
        fill: #ff7152;
      }

      .uuid-82d59573-b1c2-4b49-853c-0aaa12a0d9a6 {
        fill: #70838f;
      }

      .uuid-eee424e2-b0f4-44ab-a8cb-c37a8a74e4ee {
        fill: #d9c6c1;
      }

      .uuid-6318b11c-7dce-4aac-986a-2686b96aaa6e {
        font-family: CascadiaMonoRoman-Bold, 'Cascadia Mono';
        font-size: 19.02px;
        font-variation-settings: 'wght' 700;
        letter-spacing: .08em;
      }

      .uuid-9b1a8422-e4dd-4b4c-b50f-b7f2ad53ed9e {
        opacity: .25;
      }

      .uuid-0ddc6555-fc56-473b-8aea-36c9549ce79c {
        fill: #ffd56b;
      }

      .uuid-cc5d98d7-1797-4169-937a-f107c5e655f5 {
        opacity: .54;
      }
    </style>
  </defs>
  <g id="uuid-cec1a9b5-6b91-483c-a8b9-348e6af012a5" data-name="Layer 1">
    <rect class="uuid-f7108f45-4b7e-4ea8-8623-145c19de90d9" y="0" width="710" height="526.31" rx="23.5" ry="23.5"/>
    <rect class="uuid-82d59573-b1c2-4b49-853c-0aaa12a0d9a6" x="171.53" y="101.8" width="496.53" height="372.21" rx="15.33" ry="15.33"/>
    <rect class="uuid-b34d519e-08d6-47b4-82dd-9bad09ea99f1" x="35.42" y="113.78" width="114.42" height="70.42" rx="15.33" ry="15.33"/>
    <rect class="uuid-df774d9d-71cb-4659-8c04-40f72e126379" x="57.42" y="191.8" width="70.42" height="30.66" rx="15.33" ry="15.33"/>
    <g>
      <rect class="uuid-b34d519e-08d6-47b4-82dd-9bad09ea99f1" x="191.79" y="113.78" width="136.01" height="348.25" rx="15.33" ry="15.33"/>
      <g>
        <rect class="uuid-22f14f36-b796-4249-b598-d20eaa3b4d1a" x="201.53" y="137.26" width="116.52" height="24.02" rx="7.58" ry="7.58"/>
        <rect class="uuid-9c7354ac-8468-4d5c-bce6-427ba3b0e5e2" x="201.53" y="172.19" width="116.52" height="24.02" rx="7.58" ry="7.58"/>
        <rect class="uuid-9c7354ac-8468-4d5c-bce6-427ba3b0e5e2" x="201.53" y="207.13" width="116.52" height="24.02" rx="7.58" ry="7.58"/>
        <rect class="uuid-cc5d98d7-1797-4169-937a-f107c5e655f5" x="201.53" y="242.06" width="116.52" height="24.02" rx="7.58" ry="7.58"/>
        <rect class="uuid-9b1a8422-e4dd-4b4c-b50f-b7f2ad53ed9e" x="201.53" y="277" width="116.52" height="24.02" rx="7.58" ry="7.58"/>
      </g>
    </g>
    <g>
      <rect class="uuid-b34d519e-08d6-47b4-82dd-9bad09ea99f1" x="350.24" y="113.78" width="136.01" height="348.25" rx="15.33" ry="15.33"/>
      <g>
        <rect class="uuid-22f14f36-b796-4249-b598-d20eaa3b4d1a" x="359.99" y="137.26" width="116.52" height="24.02" rx="7.58" ry="7.58"/>
        <rect class="uuid-9c7354ac-8468-4d5c-bce6-427ba3b0e5e2" x="359.99" y="172.19" width="116.52" height="24.02" rx="7.58" ry="7.58"/>
        <rect class="uuid-9c7354ac-8468-4d5c-bce6-427ba3b0e5e2" x="359.99" y="207.13" width="116.52" height="24.02" rx="7.58" ry="7.58"/>
        <rect class="uuid-cc5d98d7-1797-4169-937a-f107c5e655f5" x="359.99" y="242.06" width="116.52" height="24.02" rx="7.58" ry="7.58"/>
        <rect class="uuid-9b1a8422-e4dd-4b4c-b50f-b7f2ad53ed9e" x="359.99" y="277" width="116.52" height="24.02" rx="7.58" ry="7.58"/>
      </g>
    </g>
    <g>
      <rect class="uuid-b34d519e-08d6-47b4-82dd-9bad09ea99f1" x="508.7" y="113.78" width="136.01" height="348.25" rx="15.33" ry="15.33"/>
      <g>
        <rect class="uuid-22f14f36-b796-4249-b598-d20eaa3b4d1a" x="518.44" y="137.26" width="116.52" height="24.02" rx="7.58" ry="7.58"/>
        <rect class="uuid-9c7354ac-8468-4d5c-bce6-427ba3b0e5e2" x="518.44" y="172.19" width="116.52" height="24.02" rx="7.58" ry="7.58"/>
        <rect class="uuid-9c7354ac-8468-4d5c-bce6-427ba3b0e5e2" x="518.44" y="207.13" width="116.52" height="24.02" rx="7.58" ry="7.58"/>
        <rect class="uuid-cc5d98d7-1797-4169-937a-f107c5e655f5" x="518.44" y="242.06" width="116.52" height="24.02" rx="7.58" ry="7.58"/>
        <rect class="uuid-9b1a8422-e4dd-4b4c-b50f-b7f2ad53ed9e" x="518.44" y="277" width="116.52" height="24.02" rx="7.58" ry="7.58"/>
      </g>
    </g>
    <rect class="uuid-1776b46f-142d-4026-8115-e7dd7ea5d39c" x="0" y="0" width="710" height="47" rx="23.5" ry="23.5"/>
    <text class="uuid-6318b11c-7dce-4aac-986a-2686b96aaa6e" transform="translate(112.32 28.56)"><tspan x="0" y="0">Shifter</tspan></text>
    <g>
      <circle class="uuid-f7108f45-4b7e-4ea8-8623-145c19de90d9" cx="672.88" cy="23.5" r="12.69"/>
      <path class="uuid-d2826fc7-df75-4699-a523-e476ebac9486" d="M677.71,29.19c0,.18,0,.36-.02.54h-9.62c-.01-.18-.02-.36-.02-.54,0-2.86,1.42-5.27,3.38-6.08-.98-.52-1.65-1.55-1.65-2.74,0-1.71,1.39-3.09,3.1-3.09s3.09,1.38,3.09,3.09c0,1.19-.67,2.22-1.65,2.74,1.95.81,3.38,3.22,3.38,6.08Z"/>
    </g>
    <g>
      <rect class="uuid-d2826fc7-df75-4699-a523-e476ebac9486" x="508.7" y="16.92" width="61.43" height="16.35" rx="8.18" ry="8.18"/>
      <text class="uuid-f8ebe742-3b0d-42d0-ba6c-5efb918121d3" transform="translate(520.7 28.36)"><tspan x="0" y="0">vuorot</tspan></text>
    </g>
    <text class="uuid-98771563-3861-42ce-b043-8f2a16a1c951" transform="translate(585.51 28.36)"><tspan x="0" y="0">kalenteri</tspan></text>
    <circle class="uuid-d5e9be89-010a-4c81-8064-0490c526296a" cx="23.95" cy="11.18" r="3.9"/>
    <circle class="uuid-0ddc6555-fc56-473b-8aea-36c9549ce79c" cx="35.42" cy="11.18" r="3.9"/>
    <circle class="uuid-eee424e2-b0f4-44ab-a8cb-c37a8a74e4ee" cx="46.89" cy="11.18" r="3.9"/>
  </g>
</svg>