<?xml version="1.0" encoding="UTF-8"?>
<svg id="uuid-f9a014ce-9224-4dcc-9493-c8a5198248a3" data-name="Layer 2" xmlns="http://www.w3.org/2000/svg" viewBox="0 0 150.61 284.83">
  <defs>
    <style>
      .uuid-c78ff9aa-5ea5-4f0e-ae0f-8dba91e4470a {
        fill: #389c9a;
      }

      .uuid-27bb1075-2f86-4568-9906-245fe48b76be {
        fill: #254d48;
      }

      .uuid-8d8d8e02-fc2d-45c5-b009-7d1d6910ebf1 {
        opacity: .46;
      }

      .uuid-046db97b-4312-4932-af4e-f9cb399f54f3 {
        fill: #357068;
      }

      .uuid-62dbc8cf-fee8-4256-aba6-c17c6b5c8b5b {
        opacity: .21;
      }

      .uuid-a2c2b5c0-5b8c-4feb-9eb2-0d0aa7842060 {
        fill: #dcdcdb;
      }

      .uuid-f9b03d50-acd9-4e93-a220-f454aa45473f {
        opacity: .7;
      }
    </style>
  </defs>
  <g id="uuid-d29d337c-0b83-4b65-9042-87c0ec854871" data-name="Layer 1">
    <g>
      <g>
        <rect class="uuid-046db97b-4312-4932-af4e-f9cb399f54f3" width="150.61" height="284.83" rx="14.17" ry="14.17"/>
        <path class="uuid-a2c2b5c0-5b8c-4feb-9eb2-0d0aa7842060" d="M150.61,14.17H0C0,6.35,6.35,0,14.17,0h122.26c7.83,0,14.17,6.35,14.17,14.17h0Z"/>
        <path class="uuid-a2c2b5c0-5b8c-4feb-9eb2-0d0aa7842060" d="M0,250.7h150.61v19.96c0,7.83-6.35,14.17-14.17,14.17H14.17C6.35,284.83,0,278.49,0,270.66v-19.96Z"/>
        <rect class="uuid-c78ff9aa-5ea5-4f0e-ae0f-8dba91e4470a" x="18.12" y="62.64" width="114.37" height="14.97" rx="2.97" ry="2.97"/>
        <rect class="uuid-c78ff9aa-5ea5-4f0e-ae0f-8dba91e4470a" x="44.16" y="212.46" width="62.28" height="14.97" rx="2.97" ry="2.97"/>
        <g class="uuid-f9b03d50-acd9-4e93-a220-f454aa45473f">
          <rect class="uuid-c78ff9aa-5ea5-4f0e-ae0f-8dba91e4470a" x="18.12" y="89.87" width="114.37" height="14.97" rx="2.97" ry="2.97"/>
        </g>
        <g class="uuid-8d8d8e02-fc2d-45c5-b009-7d1d6910ebf1">
          <rect class="uuid-c78ff9aa-5ea5-4f0e-ae0f-8dba91e4470a" x="18.12" y="117.1" width="114.37" height="14.97" rx="2.97" ry="2.97"/>
        </g>
        <g class="uuid-62dbc8cf-fee8-4256-aba6-c17c6b5c8b5b">
          <rect class="uuid-c78ff9aa-5ea5-4f0e-ae0f-8dba91e4470a" x="18.12" y="144.33" width="114.37" height="14.97" rx="2.97" ry="2.97"/>
        </g>
        <g>
          <rect class="uuid-27bb1075-2f86-4568-9906-245fe48b76be" x="33.37" y="257.57" width="10.2" height="10.2" rx="5.1" ry="5.1"/>
          <rect class="uuid-27bb1075-2f86-4568-9906-245fe48b76be" x="107.04" y="257.57" width="10.2" height="10.2" rx="5.1" ry="5.1"/>
          <rect class="uuid-27bb1075-2f86-4568-9906-245fe48b76be" x="70.2" y="257.57" width="10.2" height="10.2" rx="5.1" ry="5.1"/>
          <rect class="uuid-27bb1075-2f86-4568-9906-245fe48b76be" x="88.62" y="257.57" width="10.2" height="10.2" rx="5.1" ry="5.1"/>
          <rect class="uuid-27bb1075-2f86-4568-9906-245fe48b76be" x="51.79" y="257.57" width="10.2" height="10.2" rx="5.1" ry="5.1"/>
        </g>
      </g>
      <g>
        <path class="uuid-a2c2b5c0-5b8c-4feb-9eb2-0d0aa7842060" d="M46.43,40.08v5.16c0,.72-.14,1.34-.41,1.87s-.68.94-1.23,1.22-1.23.43-2.06.43c-1.18,0-2.08-.3-2.7-.91s-.93-1.46-.93-2.57v-5.21h2.33v5.03c0,.61.11,1.04.34,1.32s.56.41,1,.41c.32,0,.57-.06.77-.18s.34-.31.44-.57.14-.59.14-1v-5.02h2.31Z"/>
        <path class="uuid-a2c2b5c0-5b8c-4feb-9eb2-0d0aa7842060" d="M54.55,42.01v6.64h-1.73l-.29-.83h-.13c-.14.22-.31.4-.52.54s-.44.24-.69.3-.52.1-.79.1c-.43,0-.83-.08-1.17-.25s-.63-.43-.83-.79-.31-.82-.31-1.39v-4.32h2.29v3.63c0,.43.06.76.18.98s.33.34.61.34.51-.08.67-.23.27-.39.33-.69.09-.68.09-1.11v-2.91h2.29Z"/>
        <path class="uuid-a2c2b5c0-5b8c-4feb-9eb2-0d0aa7842060" d="M61.07,46.61c0,.42-.09.79-.28,1.12s-.49.58-.9.76-.95.28-1.63.28c-.47,0-.9-.03-1.27-.08s-.75-.15-1.13-.29v-1.83c.42.19.84.33,1.28.41s.78.13,1.03.13.45-.03.57-.08.18-.14.18-.25c0-.1-.04-.18-.12-.25s-.22-.15-.43-.24-.49-.21-.86-.36c-.37-.15-.67-.32-.92-.5s-.43-.39-.55-.64-.18-.56-.18-.92c0-.65.25-1.14.75-1.46s1.16-.49,1.99-.49c.44,0,.85.05,1.24.14s.79.24,1.2.42l-.63,1.48c-.33-.15-.66-.27-1-.36s-.6-.13-.8-.13c-.18,0-.32.02-.42.07s-.15.12-.15.21c0,.08.03.15.1.22s.2.13.39.22.47.2.84.35c.39.16.71.32.96.5s.44.39.56.65.18.58.18.97Z"/>
        <path class="uuid-a2c2b5c0-5b8c-4feb-9eb2-0d0aa7842060" d="M63.51,39.34c.33,0,.61.07.86.21s.37.41.37.81-.12.66-.37.8-.53.21-.86.21-.62-.07-.86-.21-.35-.41-.35-.8.12-.68.35-.81.52-.21.86-.21ZM64.64,42.01v6.64h-2.29v-6.64h2.29Z"/>
        <path class="uuid-a2c2b5c0-5b8c-4feb-9eb2-0d0aa7842060" d="M73.37,41.89c.12,0,.26,0,.39.03s.24.03.3.04l-.21,2.16c-.07-.02-.17-.04-.29-.05s-.28-.02-.49-.02c-.14,0-.3.01-.46.04s-.32.08-.47.17-.27.22-.36.4-.14.42-.14.72v3.26h-2.29v-6.64h1.71l.36,1.06h.11c.12-.22.28-.42.47-.59s.4-.32.64-.42.48-.16.73-.16Z"/>
        <path class="uuid-a2c2b5c0-5b8c-4feb-9eb2-0d0aa7842060" d="M77.98,41.89c.64,0,1.2.11,1.67.34s.83.56,1.08,1.01.38,1.01.38,1.69v1.02h-4.1c.02.35.15.63.39.86s.59.33,1.06.33c.41,0,.79-.04,1.14-.12s.7-.21,1.07-.38v1.65c-.32.17-.67.29-1.05.37s-.86.12-1.44.12c-.67,0-1.27-.12-1.79-.36s-.94-.61-1.25-1.11-.45-1.14-.45-1.93.14-1.45.41-1.97.66-.89,1.15-1.14,1.06-.37,1.72-.37ZM78.06,43.45c-.27,0-.5.08-.68.25s-.29.44-.32.8h1.97c0-.2-.04-.37-.12-.53s-.18-.29-.33-.38-.32-.14-.53-.14Z"/>
        <path class="uuid-a2c2b5c0-5b8c-4feb-9eb2-0d0aa7842060" d="M87.34,46.61c0,.42-.09.79-.28,1.12s-.49.58-.9.76-.95.28-1.63.28c-.47,0-.9-.03-1.27-.08s-.75-.15-1.13-.29v-1.83c.42.19.84.33,1.28.41s.78.13,1.03.13.45-.03.57-.08.18-.14.18-.25c0-.1-.04-.18-.12-.25s-.22-.15-.43-.24-.49-.21-.86-.36c-.37-.15-.67-.32-.92-.5s-.43-.39-.55-.64-.18-.56-.18-.92c0-.65.25-1.14.75-1.46s1.16-.49,1.99-.49c.44,0,.85.05,1.24.14s.79.24,1.2.42l-.63,1.48c-.33-.15-.66-.27-1-.36s-.6-.13-.8-.13c-.18,0-.32.02-.42.07s-.15.12-.15.21c0,.08.03.15.1.22s.2.13.39.22.47.2.84.35c.39.16.71.32.96.5s.44.39.56.65.18.58.18.97Z"/>
        <path class="uuid-a2c2b5c0-5b8c-4feb-9eb2-0d0aa7842060" d="M91.6,41.89c.64,0,1.2.11,1.67.34s.83.56,1.08,1.01.38,1.01.38,1.69v1.02h-4.1c.02.35.15.63.39.86s.59.33,1.06.33c.41,0,.79-.04,1.14-.12s.7-.21,1.07-.38v1.65c-.32.17-.67.29-1.05.37s-.86.12-1.44.12c-.67,0-1.27-.12-1.79-.36s-.94-.61-1.25-1.11-.45-1.14-.45-1.93.14-1.45.41-1.97.66-.89,1.15-1.14,1.06-.37,1.72-.37ZM91.69,43.45c-.27,0-.5.08-.68.25s-.29.44-.32.8h1.97c0-.2-.04-.37-.12-.53s-.18-.29-.33-.38-.32-.14-.53-.14Z"/>
        <path class="uuid-a2c2b5c0-5b8c-4feb-9eb2-0d0aa7842060" d="M100.09,41.89c.73,0,1.31.29,1.73.88s.63,1.43.63,2.54c0,.75-.11,1.39-.32,1.9s-.5.9-.86,1.16-.78.39-1.25.39c-.31,0-.58-.04-.79-.12s-.4-.18-.54-.29-.26-.24-.36-.36h-.07c.02.15.04.32.05.49s.02.38.02.62v2.43h-2.29v-9.52h1.86l.32.84h.11c.11-.17.24-.33.4-.48s.35-.26.57-.35.49-.13.79-.13ZM99.23,43.69c-.22,0-.4.05-.53.16s-.22.26-.28.48-.09.48-.1.79v.18c0,.35.03.65.08.89s.15.42.28.54.32.18.55.18c.19,0,.35-.05.48-.16s.23-.28.29-.52.1-.55.1-.94c0-.58-.08-.99-.23-1.24s-.37-.36-.66-.36Z"/>
        <path class="uuid-a2c2b5c0-5b8c-4feb-9eb2-0d0aa7842060" d="M107,46.95c.21,0,.4-.02.57-.06s.35-.1.54-.16v1.67c-.25.11-.51.2-.79.27s-.64.1-1.07.1-.81-.07-1.14-.2-.58-.37-.76-.7-.27-.8-.27-1.4v-2.74h-.8v-.93l1.02-.72.59-1.39h1.5v1.33h1.63v1.72h-1.63v2.58c0,.21.05.38.16.48s.26.16.46.16Z"/>
        <path class="uuid-a2c2b5c0-5b8c-4feb-9eb2-0d0aa7842060" d="M110.44,39.34c.33,0,.61.07.86.21s.37.41.37.81-.12.66-.37.8-.53.21-.86.21-.62-.07-.86-.21-.35-.41-.35-.8.12-.68.35-.81.52-.21.86-.21ZM111.57,42.01v6.64h-2.29v-6.64h2.29Z"/>
      </g>
    </g>
  </g>
</svg>